<?xml version="1.0" encoding="UTF-8" standalone="no"?>
<!-- Creator: CorelDRAW -->

<svg
   xmlns:dc="http://purl.org/dc/elements/1.1/"
   xmlns:cc="http://creativecommons.org/ns#"
   xmlns:rdf="http://www.w3.org/1999/02/22-rdf-syntax-ns#"
   xmlns:svg="http://www.w3.org/2000/svg"
   xmlns="http://www.w3.org/2000/svg"
   xmlns:sodipodi="http://sodipodi.sourceforge.net/DTD/sodipodi-0.dtd"
   xmlns:inkscape="http://www.inkscape.org/namespaces/inkscape"
   xml:space="preserve"
   width="524.766318"
   height="80"
   style="fill-rule:evenodd"
   viewBox="0 0 91.681804 13.77181"
   id="svg2"
   version="1.1"
   inkscape:version="0.48.5 r10040"
   sodipodi:docname="geogebra-logo-name-ohne-weiss-2013-05-03.svg"><metadata
   id="metadata42"><rdf:RDF><cc:Work
       rdf:about=""><dc:format>image/svg+xml</dc:format><dc:type
         rdf:resource="http://purl.org/dc/dcmitype/StillImage" /><dc:title></dc:title></cc:Work></rdf:RDF></metadata><sodipodi:namedview
   pagecolor="#ffffff"
   bordercolor="#666666"
   borderopacity="1"
   objecttolerance="10"
   gridtolerance="10"
   guidetolerance="10"
   inkscape:pageopacity="0"
   inkscape:pageshadow="2"
   inkscape:window-width="1920"
   inkscape:window-height="1027"
   id="namedview40"
   showgrid="false"
   fit-margin-top="0"
   fit-margin-left="0"
   fit-margin-right="0"
   fit-margin-bottom="0"
   inkscape:zoom="0.71303495"
   inkscape:cx="162.50953"
   inkscape:cy="24.053066"
   inkscape:window-x="-8"
   inkscape:window-y="-8"
   inkscape:window-maximized="1"
   inkscape:current-layer="svg2" />
 <defs
   id="defs4">
  <style
   type="text/css"
   id="style6">
   
    .fil1 {fill:black}
    .fil0 {fill:#666666}
    .fil2 {fill:#9999FF}
   
  </style>
 </defs>
 <g
   id="Layer_x0020_1"
   transform="translate(-10.7362,-9.0165002)">
  <metadata
   id="CorelCorpID_0Corel-Layer" />
  <path
   class="fil0"
   d="m 37.7265,19.9266 c 0.5867,1.2387 1.7546,2.0047 3.1279,2.2111 1.094,0.1645 2.3184,-0.0224 3.487,-0.6313 0.9564,-0.5038 1.6964,-1.1766 2.2088,-1.9043 0.5997,-0.8519 0.8945,-1.7751 0.9478,-2.5163 0.0672,-0.9359 -0.1491,-1.8081 -0.6141,-2.5156 -0.7584,-1.1537 -2.1749,-1.9173 -3.8505,-1.8209 -0.7293,0.0419 -1.5203,0.17 -2.3498,0.5692 -1.7944,0.8636 -3.2785,2.687 -3.3518,4.6634 -0.0239,0.6426 0.0734,1.2948 0.3947,1.9447 z m 3.1899,-5.6317 c -0.7481,0.3753 -1.3408,0.9197 -1.7773,1.5138 -0.4991,0.6793 -0.7923,1.4486 -0.8317,2.203 -0.0265,0.5074 0.0651,1.0069 0.272,1.4734 0.4758,1.0047 1.4429,1.5641 2.5599,1.7073 0.7409,0.095 1.6148,-0.0291 2.4657,-0.4074 0.1051,-0.0467 0.2085,-0.1065 0.3128,-0.1608 0.7592,-0.4005 1.3196,-0.9085 1.7379,-1.4528 0.5111,-0.6652 0.8,-1.3825 0.8487,-1.9936 0.0676,-0.8493 -0.1117,-1.6168 -0.5289,-2.2028 -0.5935,-0.834 -1.6552,-1.3164 -3.0392,-1.2778 -0.6326,0.0176 -1.2999,0.2131 -2.0199,0.5977 z"
   id="path10"
   inkscape:connector-curvature="0"
   style="fill:#666666" />
  <g
   id="_425032456">
   <circle
   id="_425027248"
   class="fil1"
   cx="37.8274"
   cy="16.7048"
   r="1.39161"
   sodipodi:cx="37.8274"
   sodipodi:cy="16.7048"
   sodipodi:rx="1.39161"
   sodipodi:ry="1.39161"
   style="fill:#000000"
   d="m 39.21901,16.7048 c 0,0.768565 -0.623045,1.39161 -1.39161,1.39161 -0.768565,0 -1.39161,-0.623045 -1.39161,-1.39161 0,-0.768565 0.623045,-1.39161 1.39161,-1.39161 0.768565,0 1.39161,0.623045 1.39161,1.39161 z" />
   <circle
   id="_425024488"
   class="fil2"
   cx="37.8274"
   cy="16.7048"
   r="0.96921903"
   sodipodi:cx="37.8274"
   sodipodi:cy="16.7048"
   sodipodi:rx="0.96921903"
   sodipodi:ry="0.96921903"
   style="fill:#9999ff"
   d="m 38.796619,16.7048 c 0,0.535285 -0.433934,0.969219 -0.969219,0.969219 -0.535285,0 -0.969219,-0.433934 -0.969219,-0.969219 0,-0.535285 0.433934,-0.969219 0.969219,-0.969219 0.535285,0 0.969219,0.433934 0.969219,0.969219 z" />
  </g>
  <g
   id="_425025208">
   <circle
   id="_425031448"
   class="fil1"
   cx="39.6511"
   cy="21.3967"
   r="1.39161"
   sodipodi:cx="39.6511"
   sodipodi:cy="21.3967"
   sodipodi:rx="1.39161"
   sodipodi:ry="1.39161"
   style="fill:#000000"
   d="m 41.04271,21.3967 c 0,0.768565 -0.623045,1.39161 -1.39161,1.39161 -0.768565,0 -1.39161,-0.623045 -1.39161,-1.39161 0,-0.768565 0.623045,-1.39161 1.39161,-1.39161 0.768565,0 1.39161,0.623045 1.39161,1.39161 z" />
   <circle
   id="_424721080"
   class="fil2"
   cx="39.6511"
   cy="21.3967"
   r="0.96921903"
   sodipodi:cx="39.6511"
   sodipodi:cy="21.3967"
   sodipodi:rx="0.96921903"
   sodipodi:ry="0.96921903"
   style="fill:#9999ff"
   d="m 40.620319,21.3967 c 0,0.535285 -0.433934,0.969219 -0.969219,0.969219 -0.535285,0 -0.969219,-0.433934 -0.969219,-0.969219 0,-0.535285 0.433934,-0.969219 0.969219,-0.969219 0.535285,0 0.969219,0.433934 0.969219,0.969219 z" />
  </g>
  <g
   id="_425312432">
   <circle
   id="_425312456"
   class="fil1"
   cx="42.085201"
   cy="13.3839"
   r="1.39161"
   sodipodi:cx="42.085201"
   sodipodi:cy="13.3839"
   sodipodi:rx="1.39161"
   sodipodi:ry="1.39161"
   style="fill:#000000"
   d="m 43.476811,13.3839 c 0,0.768565 -0.623045,1.39161 -1.39161,1.39161 -0.768565,0 -1.39161,-0.623045 -1.39161,-1.39161 0,-0.768565 0.623045,-1.39161 1.39161,-1.39161 0.768565,0 1.39161,0.623045 1.39161,1.39161 z" />
   <circle
   id="_425309168"
   class="fil2"
   cx="42.085201"
   cy="13.384"
   r="0.96921903"
   sodipodi:cx="42.085201"
   sodipodi:cy="13.384"
   sodipodi:rx="0.96921903"
   sodipodi:ry="0.96921903"
   style="fill:#9999ff"
   d="m 43.05442,13.384 c 0,0.535285 -0.433934,0.969219 -0.969219,0.969219 -0.535285,0 -0.969219,-0.433934 -0.969219,-0.969219 0,-0.535285 0.433934,-0.969219 0.969219,-0.969219 0.535285,0 0.969219,0.433934 0.969219,0.969219 z" />
  </g>
  <g
   id="_424254608">
   <circle
   id="_425315792"
   class="fil1"
   cx="46.901199"
   cy="15.9151"
   r="1.39161"
   sodipodi:cx="46.901199"
   sodipodi:cy="15.9151"
   sodipodi:rx="1.39161"
   sodipodi:ry="1.39161"
   style="fill:#000000"
   d="m 48.292809,15.9151 c 0,0.768565 -0.623045,1.39161 -1.39161,1.39161 -0.768565,0 -1.39161,-0.623045 -1.39161,-1.39161 0,-0.768565 0.623045,-1.39161 1.39161,-1.39161 0.768565,0 1.39161,0.623045 1.39161,1.39161 z" />
   <circle
   id="_425312528"
   class="fil2"
   cx="46.901199"
   cy="15.9151"
   r="0.96921903"
   sodipodi:cx="46.901199"
   sodipodi:cy="15.9151"
   sodipodi:rx="0.96921903"
   sodipodi:ry="0.96921903"
   style="fill:#9999ff"
   d="m 47.870418,15.9151 c 0,0.535285 -0.433934,0.969219 -0.969219,0.969219 -0.535285,0 -0.969219,-0.433934 -0.969219,-0.969219 0,-0.535285 0.433934,-0.969219 0.969219,-0.969219 0.535285,0 0.969219,0.433934 0.969219,0.969219 z" />
  </g>
  <g
   id="_424254968">
   <circle
   id="_425030776"
   class="fil1"
   cx="44.994499"
   cy="20.667"
   r="1.39161"
   sodipodi:cx="44.994499"
   sodipodi:cy="20.667"
   sodipodi:rx="1.39161"
   sodipodi:ry="1.39161"
   style="fill:#000000"
   d="m 46.386109,20.667 c 0,0.768565 -0.623045,1.39161 -1.39161,1.39161 -0.768565,0 -1.39161,-0.623045 -1.39161,-1.39161 0,-0.768565 0.623045,-1.39161 1.39161,-1.39161 0.768565,0 1.39161,0.623045 1.39161,1.39161 z" />
   <circle
   id="_425024152"
   class="fil2"
   cx="44.994499"
   cy="20.667"
   r="0.96921903"
   sodipodi:cx="44.994499"
   sodipodi:cy="20.667"
   sodipodi:rx="0.96921903"
   sodipodi:ry="0.96921903"
   style="fill:#9999ff"
   d="m 45.963718,20.667 c 0,0.535285 -0.433934,0.969219 -0.969219,0.969219 -0.535285,0 -0.969219,-0.433934 -0.969219,-0.969219 0,-0.535285 0.433934,-0.969219 0.969219,-0.969219 0.535285,0 0.969219,0.433934 0.969219,0.969219 z" />
  </g>
  <g
   id="_424132880">
   <g
   id="g28">
    <path
   id="_424257416"
   class="fil0"
   d="m 61.6913,11.4404 -0.973,0.9217 c -0.6997,-0.6883 -1.4668,-1.2106 -2.3,-1.5662 -0.8337,-0.3555 -1.646,-0.5335 -2.4366,-0.5335 -0.9843,0 -1.9216,0.2421 -2.8121,0.7253 -0.8905,0.4839 -1.5802,1.1395 -2.0696,1.9673 -0.4894,0.8279 -0.734,1.7026 -0.734,2.6245 0,0.9444 0.2531,1.8421 0.7597,2.6924 0.5063,0.8506 1.2061,1.5192 2.0994,2.0057 0.8932,0.4864 1.8717,0.7298 2.9358,0.7298 1.2917,0 2.3838,-0.3641 3.2772,-1.0927 0.8932,-0.7283 1.4222,-1.6727 1.5874,-2.8335 l -4.0027,10e-5 0,-1.2119 5.411,0 c -0.0116,1.9404 -0.5879,3.4807 -1.7284,4.6215 -1.1404,1.1407 -2.667,1.7112 -4.5786,1.7112 -2.3214,0 -4.1592,-0.7909 -5.5133,-2.3727 -1.0411,-1.2173 -1.5617,-2.6258 -1.5617,-4.2245 0,-1.1891 0.2986,-2.2958 0.8961,-3.32 0.5974,-1.024 1.4166,-1.8249 2.4581,-2.4022 1.0411,-0.5774 2.2189,-0.8662 3.5332,-0.8662 1.0638,0 2.0654,0.1921 3.004,0.576 0.9388,0.3842 1.8546,1.0001 2.7481,1.8479 z"
   inkscape:connector-curvature="0"
   style="fill:#666666" />
    <path
   id="_424255856"
   class="fil0"
   d="m 72.4448,18.8055 1.0073,0.529 c -0.3302,0.6488 -0.7119,1.1726 -1.1447,1.5705 -0.4332,0.3981 -0.9196,0.701 -1.4607,0.9087 -0.5413,0.2074 -1.1532,0.3115 -1.8366,0.3115 -1.5147,0 -2.6993,-0.4963 -3.5534,-1.4893 -0.8543,-0.9927 -1.2816,-2.115 -1.2816,-3.3668 0,-1.1777 0.3616,-2.2276 1.0847,-3.1493 0.9167,-1.1719 2.1439,-1.7581 3.6818,-1.7581 1.5831,0 2.847,0.6003 3.7928,1.8006 0.6719,0.8477 1.0136,1.906 1.025,3.1747 l -8.3551,10e-5 c 0.0227,1.0786 0.3675,1.9628 1.0339,2.6525 0.6665,0.6894 1.4899,1.0345 2.4694,1.0345 0.4727,0 0.9325,-0.0825 1.3802,-0.2468 0.4468,-0.1641 0.8273,-0.3824 1.1404,-0.6548 0.3127,-0.2714 0.652,-0.7106 1.0166,-1.317 z m 0,-2.5006 c -0.1596,-0.6371 -0.3913,-1.1465 -0.6965,-1.5277 -0.3052,-0.3811 -0.7079,-0.6883 -1.2092,-0.9217 -0.501,-0.2333 -1.0282,-0.3498 -1.5805,-0.3498 -0.9116,0 -1.6948,0.293 -2.3502,0.8791 -0.4786,0.4268 -0.8403,1.0668 -1.0847,1.9203 l 6.9211,10e-5 0,-3e-4 z"
   inkscape:connector-curvature="0"
   style="fill:#666666" />
    <path
   id="_425303192"
   class="fil0"
   d="m 76.0634,21.8863 0,-12.8698 1.1947,0 0,5.1803 c 0.5003,-0.6146 1.0602,-1.074 1.6793,-1.3784 0.6199,-0.3041 1.2987,-0.4566 2.0379,-0.4566 1.313,0 2.4342,0.4764 3.3633,1.4296 0.9296,0.9529 1.3941,2.1092 1.3941,3.4693 0,1.3429 -0.4688,2.4892 -1.4068,3.4394 -0.938,0.9502 -2.0661,1.4254 -3.3847,1.4254 -0.7557,0 -1.4406,-0.162 -2.0548,-0.4865 -0.6136,-0.3245 -1.1566,-0.8106 -1.6283,-1.4591 l 0,1.7067 -1.1947,0 0,-3e-4 z m 4.7793,-0.9132 c 0.6643,0 1.2773,-0.1633 1.8394,-0.4905 0.5618,-0.3272 1.0086,-0.7867 1.3408,-1.3786 0.3319,-0.5913 0.4981,-1.2173 0.4981,-1.8772 0,-0.66 -0.1673,-1.2887 -0.5021,-1.8862 -0.3351,-0.5974 -0.7848,-1.0625 -1.3495,-1.3955 -0.5649,-0.3327 -1.168,-0.4992 -1.8096,-0.4992 -0.6529,0 -1.2725,0.1665 -1.8603,0.4992 -0.5877,0.333 -1.0388,0.7811 -1.354,1.3442 -0.3147,0.5634 -0.4722,1.1979 -0.4722,1.9031 0,1.0752 0.3531,1.9745 1.0599,2.6968 0.7068,0.7224 1.5763,1.0839 2.6095,1.0839 z"
   inkscape:connector-curvature="0"
   style="fill:#666666" />
    <path
   id="_424243952"
   class="fil0"
   d="m 87.4571,12.601 1.2202,0 0,1.3569 c 0.3641,-0.5348 0.7481,-0.9346 1.1521,-1.1992 0.4038,-0.2645 0.8248,-0.3966 1.2628,-0.3966 0.3298,0 0.6829,0.1052 1.0584,0.3158 l -0.6228,1.007 c -0.2505,-0.108 -0.4608,-0.1623 -0.6316,-0.1623 -0.3985,0 -0.7824,0.1636 -1.1521,0.4907 -0.3698,0.3271 -0.6517,0.835 -0.8451,1.5234 -0.148,0.5293 -0.2217,1.5989 -0.2217,3.209 l 0,3.1408 -1.2202,10e-5 0,-9.2856 z"
   inkscape:connector-curvature="0"
   style="fill:#666666" />
    <path
   id="_425306432"
   class="fil0"
   d="m 102.418,12.601 0,9.2854 -1.1777,-10e-5 0,-1.5961 c -0.5008,0.6092 -1.0626,1.0671 -1.6857,1.3741 -0.6228,0.3073 -1.3045,0.4608 -2.0437,0.4608 -1.3143,0 -2.4369,-0.4764 -3.3668,-1.4296 -0.9305,-0.9526 -1.3956,-2.1121 -1.3956,-3.4778 0,-1.3371 0.4693,-2.4804 1.4082,-3.4307 0.939,-0.9502 2.0683,-1.4254 3.3882,-1.4254 0.7624,0 1.4521,0.162 2.0696,0.4865 0.6173,0.3242 1.1592,0.8107 1.6257,1.4594 l 0,-1.7067 1.1778,2e-4 z m -4.775,0.9132 c -0.6648,0 -1.2787,0.1636 -1.8412,0.4902 -0.5629,0.3269 -1.0103,0.7859 -1.3429,1.3768 -0.3324,0.5908 -0.4987,1.2163 -0.4987,1.8753 0,0.6538 0.1678,1.279 0.5029,1.8756 0.335,0.5966 0.7859,1.0615 1.351,1.3936 0.5655,0.3327 1.1723,0.4989 1.8202,0.4989 0.6538,0 1.2729,-0.1649 1.8585,-0.4944 0.5853,-0.3298 1.0356,-0.7758 1.3509,-1.3384 0.3152,-0.5626 0.4733,-1.196 0.4733,-1.9007 0,-1.0739 -0.3539,-1.9721 -1.0615,-2.6939 -0.7073,-0.722 -1.5782,-1.083 -2.6125,-1.083 z"
   inkscape:connector-curvature="0"
   style="fill:#666666" />
   </g>
  </g>
  <g
   id="_425315936">
   <g
   id="g36">
    <path
   id="_425314592"
   class="fil0"
   d="m 23.3753,11.5024 -0.9729,0.9217 c -0.6997,-0.6883 -1.4666,-1.2105 -2.3,-1.5662 -0.8337,-0.3554 -1.646,-0.5335 -2.4366,-0.5335 -0.9844,0 -1.9217,0.2421 -2.8121,0.7254 -0.8905,0.4839 -1.5802,1.1394 -2.0696,1.9673 -0.4894,0.8278 -0.7341,1.7025 -0.7341,2.6244 0,0.9444 0.2532,1.8421 0.7598,2.6924 0.5062,0.8506 1.206,1.5192 2.0994,2.0057 0.8932,0.4865 1.8716,0.7298 2.9358,0.7298 1.2916,0 2.3837,-0.3641 3.2772,-1.0927 0.8932,-0.7282 1.4222,-1.6726 1.5874,-2.8335 l -4.0024,0 0,-1.2118 5.411,10e-5 c -0.0114,1.9403 -0.5877,3.4806 -1.7284,4.6214 -1.1408,1.1408 -2.667,1.7112 -4.5786,1.7112 -2.3215,0 -4.1592,-0.7909 -5.5133,-2.3727 -1.0412,-1.2173 -1.5617,-2.6258 -1.5617,-4.2245 0,-1.1891 0.2986,-2.2958 0.896,-3.32 0.5975,-1.024 1.4166,-1.8249 2.4581,-2.4022 1.0412,-0.5774 2.2189,-0.8662 3.5332,-0.8662 1.0639,0 2.0654,0.1921 3.004,0.576 0.9385,0.3843 1.8547,1.0002 2.7478,1.8479 z"
   inkscape:connector-curvature="0"
   style="fill:#666666" />
    <path
   id="_425318888"
   class="fil0"
   d="m 34.1289,18.8675 1.007,0.5291 c -0.3303,0.6487 -0.7119,1.1725 -1.1447,1.5704 -0.4329,0.3982 -0.9197,0.701 -1.4608,0.9087 -0.5412,0.2075 -1.1531,0.3115 -1.8366,0.3115 -1.5149,0 -2.6992,-0.4962 -3.5535,-1.4893 -0.8544,-0.9927 -1.2814,-2.115 -1.2814,-3.3668 0,-1.1777 0.3615,-2.2276 1.0847,-3.1493 0.9169,-1.1719 2.1441,-1.7581 3.6817,-1.7581 1.5831,0 2.8473,0.6004 3.7928,1.8006 0.672,0.8478 1.0134,1.906 1.025,3.1747 l -8.3551,10e-5 c 0.0225,1.0786 0.3674,1.9628 1.034,2.6525 0.6665,0.6895 1.4896,1.0345 2.4694,1.0345 0.4727,0 0.9325,-0.0825 1.3799,-0.2468 0.4472,-0.1641 0.8274,-0.3824 1.1405,-0.6547 0.3134,-0.2715 0.6524,-0.7106 1.0171,-1.3171 z m 0,-2.5006 c -0.1596,-0.6371 -0.3916,-1.1465 -0.6965,-1.5276 -0.3049,-0.3812 -0.7079,-0.6884 -1.2092,-0.9218 -0.5013,-0.2333 -1.0282,-0.3498 -1.5807,-0.3498 -0.9116,0 -1.6948,0.293 -2.3499,0.8792 -0.4786,0.4267 -0.8403,1.0667 -1.085,1.9202 l 6.9213,10e-5 0,-3e-4 z"
   inkscape:connector-curvature="0"
   style="fill:#666666" />
   </g>
  </g>
 </g>
</svg>